<mxfile host="www.draw.io" modified="2019-12-20T14:33:04.771Z" agent="Mozilla/5.0 (X11; Ubuntu; Linux x86_64; rv:71.0) Gecko/20100101 Firefox/71.0" etag="gHDWEhza9IzqjqvJA9NA" version="12.4.3" type="github" pages="1">
  <diagram id="-6oB9mol3KRmY-ijUOtQ" name="Page-1">
    <mxGraphModel dx="2452" dy="738" grid="1" gridSize="10" guides="1" tooltips="1" connect="1" arrows="1" fold="1" page="1" pageScale="1" pageWidth="1100" pageHeight="850" math="0" shadow="0">
      <root>
        <mxCell id="0"/>
        <mxCell id="1" parent="0"/>
        <mxCell id="VfZ5wekR2989KPgDg3WH-78" value="" style="edgeStyle=orthogonalEdgeStyle;rounded=0;orthogonalLoop=1;jettySize=auto;html=1;" edge="1" parent="1" source="VfZ5wekR2989KPgDg3WH-1" target="VfZ5wekR2989KPgDg3WH-77">
          <mxGeometry relative="1" as="geometry"/>
        </mxCell>
        <mxCell id="VfZ5wekR2989KPgDg3WH-1" value="" style="ellipse;whiteSpace=wrap;html=1;aspect=fixed;fillColor=#f5f5f5;strokeColor=#666666;fontColor=#333333;" vertex="1" parent="1">
          <mxGeometry x="70" y="92" width="20" height="20" as="geometry"/>
        </mxCell>
        <mxCell id="VfZ5wekR2989KPgDg3WH-102" value="" style="edgeStyle=orthogonalEdgeStyle;rounded=0;orthogonalLoop=1;jettySize=auto;html=1;" edge="1" parent="1" source="VfZ5wekR2989KPgDg3WH-77" target="VfZ5wekR2989KPgDg3WH-101">
          <mxGeometry relative="1" as="geometry"/>
        </mxCell>
        <mxCell id="VfZ5wekR2989KPgDg3WH-77" value="" style="ellipse;whiteSpace=wrap;html=1;aspect=fixed;fillColor=#f5f5f5;strokeColor=#666666;fontColor=#333333;" vertex="1" parent="1">
          <mxGeometry x="610" y="92" width="20" height="20" as="geometry"/>
        </mxCell>
        <mxCell id="VfZ5wekR2989KPgDg3WH-101" value="" style="ellipse;whiteSpace=wrap;html=1;aspect=fixed;fillColor=#f5f5f5;strokeColor=#666666;fontColor=#333333;" vertex="1" parent="1">
          <mxGeometry x="770" y="92" width="20" height="20" as="geometry"/>
        </mxCell>
        <mxCell id="VfZ5wekR2989KPgDg3WH-2" value="" style="ellipse;whiteSpace=wrap;html=1;aspect=fixed;fillColor=#fff2cc;strokeColor=#d6b656;" vertex="1" parent="1">
          <mxGeometry x="260" y="400" width="20" height="20" as="geometry"/>
        </mxCell>
        <mxCell id="VfZ5wekR2989KPgDg3WH-3" value="" style="ellipse;whiteSpace=wrap;html=1;aspect=fixed;fillColor=#fff2cc;strokeColor=#d6b656;" vertex="1" parent="1">
          <mxGeometry x="130" y="400" width="20" height="20" as="geometry"/>
        </mxCell>
        <mxCell id="VfZ5wekR2989KPgDg3WH-4" value="" style="ellipse;whiteSpace=wrap;html=1;aspect=fixed;fillColor=#e1d5e7;strokeColor=#9673a6;" vertex="1" parent="1">
          <mxGeometry x="150" y="512" width="20" height="20" as="geometry"/>
        </mxCell>
        <mxCell id="VfZ5wekR2989KPgDg3WH-5" value="" style="ellipse;whiteSpace=wrap;html=1;aspect=fixed;fillColor=#e1d5e7;strokeColor=#9673a6;" vertex="1" parent="1">
          <mxGeometry x="230" y="512" width="20" height="20" as="geometry"/>
        </mxCell>
        <mxCell id="VfZ5wekR2989KPgDg3WH-64" value="" style="edgeStyle=orthogonalEdgeStyle;rounded=0;orthogonalLoop=1;jettySize=auto;html=1;" edge="1" parent="1" source="VfZ5wekR2989KPgDg3WH-6" target="VfZ5wekR2989KPgDg3WH-63">
          <mxGeometry relative="1" as="geometry"/>
        </mxCell>
        <mxCell id="VfZ5wekR2989KPgDg3WH-6" value="" style="ellipse;whiteSpace=wrap;html=1;aspect=fixed;fillColor=#fff2cc;strokeColor=#d6b656;" vertex="1" parent="1">
          <mxGeometry x="330" y="400" width="20" height="20" as="geometry"/>
        </mxCell>
        <mxCell id="VfZ5wekR2989KPgDg3WH-106" value="" style="edgeStyle=orthogonalEdgeStyle;rounded=0;orthogonalLoop=1;jettySize=auto;html=1;" edge="1" parent="1" source="VfZ5wekR2989KPgDg3WH-63" target="VfZ5wekR2989KPgDg3WH-105">
          <mxGeometry relative="1" as="geometry"/>
        </mxCell>
        <mxCell id="VfZ5wekR2989KPgDg3WH-63" value="" style="ellipse;whiteSpace=wrap;html=1;aspect=fixed;fillColor=#fff2cc;strokeColor=#d6b656;" vertex="1" parent="1">
          <mxGeometry x="560" y="400" width="20" height="20" as="geometry"/>
        </mxCell>
        <mxCell id="VfZ5wekR2989KPgDg3WH-109" value="" style="edgeStyle=orthogonalEdgeStyle;rounded=0;orthogonalLoop=1;jettySize=auto;html=1;" edge="1" parent="1" source="VfZ5wekR2989KPgDg3WH-105" target="VfZ5wekR2989KPgDg3WH-108">
          <mxGeometry relative="1" as="geometry"/>
        </mxCell>
        <mxCell id="VfZ5wekR2989KPgDg3WH-105" value="" style="ellipse;whiteSpace=wrap;html=1;aspect=fixed;fillColor=#fff2cc;strokeColor=#d6b656;" vertex="1" parent="1">
          <mxGeometry x="660" y="400" width="20" height="20" as="geometry"/>
        </mxCell>
        <mxCell id="VfZ5wekR2989KPgDg3WH-108" value="" style="ellipse;whiteSpace=wrap;html=1;aspect=fixed;fillColor=#fff2cc;strokeColor=#d6b656;" vertex="1" parent="1">
          <mxGeometry x="760" y="400" width="20" height="20" as="geometry"/>
        </mxCell>
        <mxCell id="VfZ5wekR2989KPgDg3WH-60" value="" style="edgeStyle=orthogonalEdgeStyle;rounded=0;orthogonalLoop=1;jettySize=auto;html=1;" edge="1" parent="1" source="VfZ5wekR2989KPgDg3WH-7" target="VfZ5wekR2989KPgDg3WH-59">
          <mxGeometry relative="1" as="geometry"/>
        </mxCell>
        <mxCell id="VfZ5wekR2989KPgDg3WH-7" value="" style="ellipse;whiteSpace=wrap;html=1;aspect=fixed;fillColor=#d5e8d4;strokeColor=#82b366;" vertex="1" parent="1">
          <mxGeometry x="380" y="292" width="20" height="20" as="geometry"/>
        </mxCell>
        <mxCell id="VfZ5wekR2989KPgDg3WH-62" value="" style="edgeStyle=orthogonalEdgeStyle;rounded=0;orthogonalLoop=1;jettySize=auto;html=1;" edge="1" parent="1" source="VfZ5wekR2989KPgDg3WH-59" target="VfZ5wekR2989KPgDg3WH-61">
          <mxGeometry relative="1" as="geometry"/>
        </mxCell>
        <mxCell id="VfZ5wekR2989KPgDg3WH-59" value="" style="ellipse;whiteSpace=wrap;html=1;aspect=fixed;fillColor=#d5e8d4;strokeColor=#82b366;" vertex="1" parent="1">
          <mxGeometry x="520" y="292" width="20" height="20" as="geometry"/>
        </mxCell>
        <mxCell id="VfZ5wekR2989KPgDg3WH-61" value="" style="ellipse;whiteSpace=wrap;html=1;aspect=fixed;fillColor=#d5e8d4;strokeColor=#82b366;" vertex="1" parent="1">
          <mxGeometry x="690" y="292" width="20" height="20" as="geometry"/>
        </mxCell>
        <mxCell id="VfZ5wekR2989KPgDg3WH-76" value="" style="edgeStyle=orthogonalEdgeStyle;rounded=0;orthogonalLoop=1;jettySize=auto;html=1;" edge="1" parent="1" source="VfZ5wekR2989KPgDg3WH-9" target="VfZ5wekR2989KPgDg3WH-75">
          <mxGeometry relative="1" as="geometry"/>
        </mxCell>
        <mxCell id="VfZ5wekR2989KPgDg3WH-9" value="" style="ellipse;whiteSpace=wrap;html=1;aspect=fixed;fillColor=#f8cecc;strokeColor=#b85450;" vertex="1" parent="1">
          <mxGeometry x="420" y="190" width="20" height="20" as="geometry"/>
        </mxCell>
        <mxCell id="VfZ5wekR2989KPgDg3WH-75" value="" style="ellipse;whiteSpace=wrap;html=1;aspect=fixed;fillColor=#f8cecc;strokeColor=#b85450;" vertex="1" parent="1">
          <mxGeometry x="470" y="190" width="20" height="20" as="geometry"/>
        </mxCell>
        <mxCell id="VfZ5wekR2989KPgDg3WH-98" value="" style="edgeStyle=orthogonalEdgeStyle;rounded=0;orthogonalLoop=1;jettySize=auto;html=1;" edge="1" parent="1" source="VfZ5wekR2989KPgDg3WH-95" target="VfZ5wekR2989KPgDg3WH-97">
          <mxGeometry relative="1" as="geometry"/>
        </mxCell>
        <mxCell id="VfZ5wekR2989KPgDg3WH-95" value="" style="ellipse;whiteSpace=wrap;html=1;aspect=fixed;fillColor=#f8cecc;strokeColor=#b85450;" vertex="1" parent="1">
          <mxGeometry x="580" y="190" width="20" height="20" as="geometry"/>
        </mxCell>
        <mxCell id="VfZ5wekR2989KPgDg3WH-97" value="" style="ellipse;whiteSpace=wrap;html=1;aspect=fixed;fillColor=#f8cecc;strokeColor=#b85450;" vertex="1" parent="1">
          <mxGeometry x="640" y="190" width="20" height="20" as="geometry"/>
        </mxCell>
        <mxCell id="VfZ5wekR2989KPgDg3WH-10" value="" style="ellipse;whiteSpace=wrap;html=1;aspect=fixed;fillColor=#fff2cc;strokeColor=#d6b656;" vertex="1" parent="1">
          <mxGeometry x="610" y="512" width="20" height="20" as="geometry"/>
        </mxCell>
        <mxCell id="VfZ5wekR2989KPgDg3WH-29" value="Master" style="rounded=1;whiteSpace=wrap;html=1;fillColor=#f5f5f5;strokeColor=#666666;fontColor=#333333;" vertex="1" parent="1">
          <mxGeometry x="-120" y="80" width="120" height="44" as="geometry"/>
        </mxCell>
        <mxCell id="VfZ5wekR2989KPgDg3WH-31" value="Bugfix" style="rounded=1;whiteSpace=wrap;html=1;fillColor=#f8cecc;strokeColor=#b85450;" vertex="1" parent="1">
          <mxGeometry x="-120" y="178" width="120" height="44" as="geometry"/>
        </mxCell>
        <mxCell id="VfZ5wekR2989KPgDg3WH-32" value="Release" style="rounded=1;whiteSpace=wrap;html=1;fillColor=#d5e8d4;strokeColor=#82b366;" vertex="1" parent="1">
          <mxGeometry x="-120" y="280" width="120" height="44" as="geometry"/>
        </mxCell>
        <mxCell id="VfZ5wekR2989KPgDg3WH-33" value="Develop" style="rounded=1;whiteSpace=wrap;html=1;fillColor=#fff2cc;strokeColor=#d6b656;" vertex="1" parent="1">
          <mxGeometry x="-120" y="388" width="120" height="44" as="geometry"/>
        </mxCell>
        <mxCell id="VfZ5wekR2989KPgDg3WH-34" value="Feature" style="rounded=1;whiteSpace=wrap;html=1;fillColor=#e1d5e7;strokeColor=#9673a6;" vertex="1" parent="1">
          <mxGeometry x="-120" y="500" width="120" height="44" as="geometry"/>
        </mxCell>
        <mxCell id="VfZ5wekR2989KPgDg3WH-40" value="" style="endArrow=classic;html=1;exitX=0.5;exitY=1;exitDx=0;exitDy=0;entryX=0.5;entryY=0;entryDx=0;entryDy=0;" edge="1" parent="1" source="VfZ5wekR2989KPgDg3WH-1" target="VfZ5wekR2989KPgDg3WH-3">
          <mxGeometry width="50" height="50" relative="1" as="geometry">
            <mxPoint x="-120" y="620" as="sourcePoint"/>
            <mxPoint x="130" y="410" as="targetPoint"/>
          </mxGeometry>
        </mxCell>
        <mxCell id="VfZ5wekR2989KPgDg3WH-41" value="" style="endArrow=classic;html=1;exitX=1;exitY=0.5;exitDx=0;exitDy=0;" edge="1" parent="1" source="VfZ5wekR2989KPgDg3WH-3">
          <mxGeometry width="50" height="50" relative="1" as="geometry">
            <mxPoint x="-120" y="620" as="sourcePoint"/>
            <mxPoint x="260" y="410" as="targetPoint"/>
          </mxGeometry>
        </mxCell>
        <mxCell id="VfZ5wekR2989KPgDg3WH-43" value="" style="endArrow=classic;html=1;exitX=0.5;exitY=1;exitDx=0;exitDy=0;" edge="1" parent="1" source="VfZ5wekR2989KPgDg3WH-3" target="VfZ5wekR2989KPgDg3WH-4">
          <mxGeometry width="50" height="50" relative="1" as="geometry">
            <mxPoint x="-120" y="620" as="sourcePoint"/>
            <mxPoint x="160" y="510" as="targetPoint"/>
          </mxGeometry>
        </mxCell>
        <mxCell id="VfZ5wekR2989KPgDg3WH-44" value="" style="endArrow=classic;html=1;exitX=1;exitY=0.5;exitDx=0;exitDy=0;entryX=0;entryY=0.5;entryDx=0;entryDy=0;" edge="1" parent="1" source="VfZ5wekR2989KPgDg3WH-4" target="VfZ5wekR2989KPgDg3WH-5">
          <mxGeometry width="50" height="50" relative="1" as="geometry">
            <mxPoint x="-120" y="620" as="sourcePoint"/>
            <mxPoint x="-70" y="570" as="targetPoint"/>
          </mxGeometry>
        </mxCell>
        <mxCell id="VfZ5wekR2989KPgDg3WH-45" value="" style="endArrow=classic;html=1;exitX=0.5;exitY=0;exitDx=0;exitDy=0;entryX=0.5;entryY=1;entryDx=0;entryDy=0;" edge="1" parent="1" source="VfZ5wekR2989KPgDg3WH-5" target="VfZ5wekR2989KPgDg3WH-2">
          <mxGeometry width="50" height="50" relative="1" as="geometry">
            <mxPoint x="-120" y="620" as="sourcePoint"/>
            <mxPoint x="-70" y="570" as="targetPoint"/>
          </mxGeometry>
        </mxCell>
        <mxCell id="VfZ5wekR2989KPgDg3WH-46" value="" style="endArrow=classic;html=1;exitX=1;exitY=0.5;exitDx=0;exitDy=0;" edge="1" parent="1" source="VfZ5wekR2989KPgDg3WH-2">
          <mxGeometry width="50" height="50" relative="1" as="geometry">
            <mxPoint x="-110" y="630" as="sourcePoint"/>
            <mxPoint x="330" y="410" as="targetPoint"/>
          </mxGeometry>
        </mxCell>
        <mxCell id="VfZ5wekR2989KPgDg3WH-47" value="" style="endArrow=classic;html=1;exitX=0.5;exitY=0;exitDx=0;exitDy=0;entryX=0;entryY=1;entryDx=0;entryDy=0;" edge="1" parent="1" source="VfZ5wekR2989KPgDg3WH-6" target="VfZ5wekR2989KPgDg3WH-7">
          <mxGeometry width="50" height="50" relative="1" as="geometry">
            <mxPoint x="-100" y="640" as="sourcePoint"/>
            <mxPoint x="380" y="310" as="targetPoint"/>
          </mxGeometry>
        </mxCell>
        <mxCell id="VfZ5wekR2989KPgDg3WH-49" value="" style="endArrow=classic;html=1;exitX=0.5;exitY=0;exitDx=0;exitDy=0;entryX=0.5;entryY=1;entryDx=0;entryDy=0;" edge="1" parent="1" source="VfZ5wekR2989KPgDg3WH-7" target="VfZ5wekR2989KPgDg3WH-9">
          <mxGeometry width="50" height="50" relative="1" as="geometry">
            <mxPoint x="410" y="270" as="sourcePoint"/>
            <mxPoint x="430" y="220" as="targetPoint"/>
          </mxGeometry>
        </mxCell>
        <mxCell id="VfZ5wekR2989KPgDg3WH-50" value="" style="endArrow=classic;html=1;exitX=0.5;exitY=1;exitDx=0;exitDy=0;entryX=0;entryY=0;entryDx=0;entryDy=0;" edge="1" parent="1" source="VfZ5wekR2989KPgDg3WH-75" target="VfZ5wekR2989KPgDg3WH-59">
          <mxGeometry width="50" height="50" relative="1" as="geometry">
            <mxPoint x="160" y="470" as="sourcePoint"/>
            <mxPoint x="530" y="290" as="targetPoint"/>
          </mxGeometry>
        </mxCell>
        <mxCell id="VfZ5wekR2989KPgDg3WH-51" value="" style="endArrow=classic;html=1;exitX=0;exitY=0.5;exitDx=0;exitDy=0;" edge="1" parent="1" source="VfZ5wekR2989KPgDg3WH-59">
          <mxGeometry width="50" height="50" relative="1" as="geometry">
            <mxPoint x="-60" y="680" as="sourcePoint"/>
            <mxPoint x="610" y="100" as="targetPoint"/>
          </mxGeometry>
        </mxCell>
        <mxCell id="VfZ5wekR2989KPgDg3WH-71" value="" style="endArrow=classic;html=1;exitX=0.5;exitY=1;exitDx=0;exitDy=0;entryX=0.5;entryY=0;entryDx=0;entryDy=0;" edge="1" parent="1" source="VfZ5wekR2989KPgDg3WH-59" target="VfZ5wekR2989KPgDg3WH-63">
          <mxGeometry width="50" height="50" relative="1" as="geometry">
            <mxPoint x="-120" y="760" as="sourcePoint"/>
            <mxPoint x="-70" y="710" as="targetPoint"/>
          </mxGeometry>
        </mxCell>
        <mxCell id="VfZ5wekR2989KPgDg3WH-79" value="4.21.0" style="shape=offPageConnector;whiteSpace=wrap;html=1;fillColor=#d80073;strokeColor=#A50040;fontColor=#ffffff;" vertex="1" parent="1">
          <mxGeometry x="600" y="50" width="40" height="42" as="geometry"/>
        </mxCell>
        <mxCell id="VfZ5wekR2989KPgDg3WH-90" value="" style="endArrow=classic;html=1;exitX=1;exitY=0;exitDx=0;exitDy=0;entryX=0;entryY=1;entryDx=0;entryDy=0;" edge="1" parent="1" source="VfZ5wekR2989KPgDg3WH-59" target="VfZ5wekR2989KPgDg3WH-95">
          <mxGeometry width="50" height="50" relative="1" as="geometry">
            <mxPoint x="530" y="300" as="sourcePoint"/>
            <mxPoint x="-80" y="790" as="targetPoint"/>
          </mxGeometry>
        </mxCell>
        <mxCell id="VfZ5wekR2989KPgDg3WH-91" value="" style="endArrow=classic;html=1;entryX=0.5;entryY=0;entryDx=0;entryDy=0;exitX=1;exitY=1;exitDx=0;exitDy=0;" edge="1" parent="1" source="VfZ5wekR2989KPgDg3WH-97" target="VfZ5wekR2989KPgDg3WH-61">
          <mxGeometry width="50" height="50" relative="1" as="geometry">
            <mxPoint x="-110" y="850" as="sourcePoint"/>
            <mxPoint x="-70" y="800" as="targetPoint"/>
          </mxGeometry>
        </mxCell>
        <mxCell id="VfZ5wekR2989KPgDg3WH-92" value="" style="endArrow=classic;html=1;exitX=1;exitY=0;exitDx=0;exitDy=0;entryX=0.5;entryY=1;entryDx=0;entryDy=0;" edge="1" parent="1" source="VfZ5wekR2989KPgDg3WH-61" target="VfZ5wekR2989KPgDg3WH-101">
          <mxGeometry width="50" height="50" relative="1" as="geometry">
            <mxPoint x="610" y="180" as="sourcePoint"/>
            <mxPoint x="780" y="120" as="targetPoint"/>
          </mxGeometry>
        </mxCell>
        <mxCell id="VfZ5wekR2989KPgDg3WH-93" value="" style="endArrow=classic;html=1;exitX=0.5;exitY=1;exitDx=0;exitDy=0;entryX=0;entryY=0;entryDx=0;entryDy=0;" edge="1" parent="1" source="VfZ5wekR2989KPgDg3WH-63" target="VfZ5wekR2989KPgDg3WH-10">
          <mxGeometry width="50" height="50" relative="1" as="geometry">
            <mxPoint x="-100" y="870" as="sourcePoint"/>
            <mxPoint x="600" y="510" as="targetPoint"/>
          </mxGeometry>
        </mxCell>
        <mxCell id="VfZ5wekR2989KPgDg3WH-103" value="4.21.1" style="shape=offPageConnector;whiteSpace=wrap;html=1;fillColor=#d80073;strokeColor=#A50040;fontColor=#ffffff;" vertex="1" parent="1">
          <mxGeometry x="760" y="50" width="40" height="42" as="geometry"/>
        </mxCell>
        <mxCell id="VfZ5wekR2989KPgDg3WH-107" value="" style="endArrow=classic;html=1;exitX=1;exitY=0;exitDx=0;exitDy=0;" edge="1" parent="1" source="VfZ5wekR2989KPgDg3WH-10">
          <mxGeometry width="50" height="50" relative="1" as="geometry">
            <mxPoint x="-120" y="620" as="sourcePoint"/>
            <mxPoint x="670" y="420" as="targetPoint"/>
          </mxGeometry>
        </mxCell>
        <mxCell id="VfZ5wekR2989KPgDg3WH-110" value="" style="endArrow=classic;html=1;entryX=0.5;entryY=0;entryDx=0;entryDy=0;exitX=1;exitY=1;exitDx=0;exitDy=0;" edge="1" parent="1" source="VfZ5wekR2989KPgDg3WH-61" target="VfZ5wekR2989KPgDg3WH-108">
          <mxGeometry width="50" height="50" relative="1" as="geometry">
            <mxPoint x="700" y="312" as="sourcePoint"/>
            <mxPoint x="-70" y="570" as="targetPoint"/>
          </mxGeometry>
        </mxCell>
      </root>
    </mxGraphModel>
  </diagram>
</mxfile>
